# xmcd
# 
# Track frame offsets:
#     150
#     13930
#     35585
#     49043
#     69210
#     85440
#     98638
#     113508
#     125510
#     144125
#     157393
#     175440
#     194645
#     215523
#     232633
#     246328
#     259350
#     276448
#     303875
# 
# Disc length: 4218
# 
# Revision: 4
# Processed by: cddbd v1.5.2PL0 Copyright (c) Steve Scherf et al.
# Submitted via: BonkEnc v1.0.5
# 
DISCID=12107813
DTITLE=Taj Mahal - The Collection
DYEAR=1987
DGENRE=Blues
TTITLE0=Fishin' blues
TTITLE1=Leaving trunk
TTITLE2=Six days on the road
TTITLE3=Dust my broom
TTITLE4=Going up to the country
TTITLE5=Candy man
TTITLE6=Staggerlee
TTITLE7=Diving duck blues
TTITLE8=Clara (St Kitts woman)
TTITLE9=Statesboro blues
TTITLE10=A lot of love
TTITLE11=Take a giant step
TTITLE12=Further down the road
TTITLE13=Little red hen
TTITLE14=E-Z rider
TTITLE15=Texas woman blues
TTITLE16=A free song
TTITLE17=Oh mama, don't you know
TTITLE18=Railroad Bill
EXTD=YEAR: 1987
EXTT0=(Arr. Taj Mahal)
EXTT1=(Sleepy John Estes)
EXTT2=(Green/Montgomery)
EXTT3=(Johnson)
EXTT4=(Taj Mahal)
EXTT5=(G. Davis)
EXTT6=(Logan/Price)
EXTT7=(Arr. Taj Mahal)
EXTT8=(Taj Mahal)
EXTT9=(Trad. arr. Taj Mahal)
EXTT10=(H. Bates)
EXTT11=(Goffin/King)
EXTT12=(J. Davis/T. Mahal/G. Dilmore/C. Blackwell)
EXTT13=(Taj Mahal)
EXTT14=(Taj Mahal)
EXTT15=(Taj Mahal)
EXTT16=(Taj Mahal)
EXTT17=(Taj Mahal)
EXTT18=(J. Work)
PLAYORDER=
